<?xml version="1.0" encoding="UTF-8"?>
<svg id="b" data-name="Layer 2" xmlns="http://www.w3.org/2000/svg" viewBox="0 0 154.57 152.52">
  <g id="c" data-name="Layer 1">
    <path d="M15.26,120.78c-1.89-2.73-3.72-5.53-5.52-8.43-3.61-5.82-6.04-12.29-7.24-19.03l-1.52-8.49c-1.58-8.84-1.27-17.93,1.08-26.6C11.28,24.39,41.05.52,75.85,0c38.44-.56,66.5,24.77,76.85,60.71,2.02,7.03,2.38,14.43,1.19,21.65l-1.54,9.28c-1.14,6.88-3.72,13.44-7.56,19.26l-4.99,7.55c-7.25,10.98-17.06,20.05-28.58,26.41l-1.96,1.08c-20.55,7.68-37.78,8.97-57.66,2.05-3.52-1.23-6.91-2.8-10.17-4.62l-3.26-1.82c-9.13-5.08-16.96-12.2-22.91-20.79Z"/>
  </g>
</svg>