<?xml version="1.0" encoding="UTF-8"?>
<svg id="b" data-name="Layer 2" xmlns="http://www.w3.org/2000/svg" viewBox="0 0 332.29 172.52">
  <g id="c" data-name="Layer 1">
    <path d="M114.96,141.1c-2.89-18.03-16.01-28.33-21.51-38.12-13.91,12.3-30.63,21.87-50.59,25.27-5.8,12.58-20.93,16.7-34.97,9.17-10.5-5.64-9.86-27.23-1.95-35.01,23.11-22.76,34.3,32.96,82.57-27.1C91.04,32.68,124.67.6,165.07,0c42.65-.62,72.53,30.64,79.61,72.89,2.65,15.81,31.22,33.55,45.93,31.32,10.98-1.67,17.12-13.6,28.82-6.75,9.73,5.7,14.12,13.41,12.56,26.93-1.19,10.33-6.88,15.23-17.02,16.76-12.64,1.91-17.69-6.59-26.35-11.47-15.97-9-37.41-10.88-48.78-27.61,0,0-21.67,20.84-24.49,39.22-1.59,10.4-7.66,19.57-16.87,24.66h0c-22.61,8.45-41.2,9.16-63.71-.27l-4.63-2.58c-8.21-4.57-13.69-12.73-15.18-22Z"/>
  </g>
</svg>