<?xml version="1.0" encoding="UTF-8"?>
<svg id="b" data-name="Layer 2" xmlns="http://www.w3.org/2000/svg" viewBox="0 0 332.29 192.52">
  <g id="c" data-name="Layer 1">
    <g>
      <path d="M117.34,156.47c-.37-27.48-18.28-43.5-23.89-53.49-13.91,12.3-30.63,21.87-50.59,25.27-5.8,12.58-20.93,16.7-34.97,9.17-10.5-5.64-9.86-27.23-1.95-35.01,23.11-22.76,34.3,32.96,82.57-27.1C91.04,32.68,124.67.6,165.07,0c42.65-.62,72.53,30.64,79.61,72.89,2.65,15.81,31.22,33.55,45.93,31.32,10.98-1.67,17.12-13.6,28.82-6.75,9.73,5.7,14.12,13.41,12.56,26.93-1.19,10.33-6.88,15.23-17.02,16.76-12.64,1.91-17.69-6.59-26.35-11.47-15.97-9-37.41-10.88-48.78-27.61,0,0-24.94,29.48-25.23,56.8-.12,11.27-6.26,21.62-16.13,27.07h0c-22.61,8.45-41.2,9.16-63.71-.27h0c-10.62-5.91-17.27-17.06-17.43-29.21Z"/>
      <path d="M92.93,62.28c.31.46.43,1.03.34,1.58l-2.91,18.48c-.41,2.63-3.67,3.42-5.08,1.21-8.31-12.94-28.54-24.53-39.95-22.69-10.4,1.67-16.21,13.6-27.28,6.75-9.21-5.7-13.37-13.41-11.89-26.93,1.13-10.33,6.51-15.23,16.11-16.76"/>
      <path d="M234.49,59.84c12.66-11.21,27.69-19.83,45.42-23.01,5.49-12.58,19.82-16.7,33.11-9.17,9.94,5.64,9.33,27.23,1.85,35.01-20.64,21.46-31.23-26.86-70.69,17.92-3.12,3.54-8.73,1.8-9.54-2.96l-2.07-12.24c-.35-2.08.39-4.2,1.92-5.56Z"/>
    </g>
  </g>
</svg>