<?xml version="1.0" encoding="UTF-8"?>
<svg id="b" data-name="Layer 2" xmlns="http://www.w3.org/2000/svg" viewBox="0 0 332.29 329.46">
  <g id="c" data-name="Layer 1">
    <g>
      <path d="M120.87,288.39c4.19-33.57-21.72-69.5-27.42-82.52-13.91,15.79-30.63,21.07-50.59,25.43-5.8,16.15-20.93,21.44-34.97,11.77-10.5-7.24-9.86-27.94-1.95-37.93,23.11-29.21,34.3,42.31,82.57-34.78,2.54-54.7,36.17-95.88,76.57-96.64,42.65-.8,72.53,39.32,79.61,93.55,2.65,20.3,31.22,43.06,45.93,40.19,10.98-2.15,17.12-17.45,28.82-8.67,9.73,7.31,14.12,13.21,12.56,30.56-1.19,13.26-6.88,19.55-17.02,21.52-12.64,2.45-17.69-8.46-26.35-14.72-15.97-11.55-37.41-9.97-48.78-31.43,0,0-32.49,50.92-27.24,87.05,1.55,10.68-2.94,21.33-11.74,27.58l-2.37,1.68c-22.61,10.84-41.2,11.76-63.71-.35l-.11-.08c-10.25-7.32-15.36-19.71-13.8-32.21Z"/>
      <path d="M94.44,161.74c-.41,2.63-3.67,3.42-5.08,1.21-8.31-12.94-28.54-24.52-39.95-22.69-10.4,1.67-16.21,13.6-27.28,6.75-9.21-5.7-13.37-13.41-11.89-26.93,1.13-10.33,6.51-15.23,16.11-16.76,11.97-1.91,16.75,6.59,24.95,11.47,14.91,8.87,34.84,10.83,45.71,26.89.31.46.43,1.03.34,1.58l-2.91,18.48Z"/>
      <path d="M234.49,137.49c12.66-11.21,27.69-19.83,45.42-23.01,5.49-12.58,19.82-16.7,33.11-9.17,9.94,5.64,9.33,27.23,1.85,35.01-20.64,21.46-31.23-26.86-70.69,17.92-3.12,3.54-8.73,1.8-9.54-2.96l-2.07-12.24c-.35-2.08.39-4.2,1.92-5.56Z"/>
      <path d="M210.27,103.85c9.94-14.96,23.17-28.25,40.9-37.28,1.95-13.84,15.82-22.61,32.15-19.94,12.22,2,18.16,22.77,12.64,32.71-15.22,27.42-41.17-15.01-69.14,40.99-2.21,4.43-8.66,4.67-10.97.41l-5.92-10.95c-1.01-1.86-.87-4.13.33-5.94Z"/>
      <path d="M115.62,101.73c-9.94-14.96-23.17-28.25-40.9-37.28-1.95-13.84-15.82-22.61-32.15-19.94-12.22,2-18.16,22.77-12.64,32.71,15.22,27.42,41.17-15.01,69.14,40.99,2.21,4.43,8.66,4.67,10.97.41l5.92-10.95c1.01-1.86.87-4.13-.33-5.94Z"/>
      <path d="M128.99,96.94c-7.76-16.2-12.4-34.37-11.07-54.23-10.89-8.76-11.32-25.17-.66-37.82,7.98-9.47,28.86-3.94,34.57,5.89,15.76,27.12-33.98,27.67-.2,80.37,2.67,4.17-.42,9.83-5.26,9.63l-12.44-.52c-2.12-.09-3.99-1.36-4.93-3.33Z"/>
      <path d="M202.06,98.36c8.32-15.92,13.6-33.92,12.97-53.81,11.19-8.38,12.2-24.75,1.99-37.78-7.64-9.74-28.7-4.95-34.76,4.68-16.7,26.55,32.98,28.84-2.62,80.33-2.81,4.07.08,9.84,4.92,9.81l12.45-.09c2.12-.01,4.04-1.22,5.05-3.15Z"/>
    </g>
  </g>
</svg>